<?xml version="1.0" encoding="UTF-8"?>
<!DOCTYPE svg PUBLIC "-//W3C//DTD SVG 1.1//EN" "http://www.w3.org/Graphics/SVG/1.1/DTD/svg11.dtd">
<svg xmlns="http://www.w3.org/2000/svg" version="1.1" viewBox="0 0 81 81" stroke="none">
	<rect width="100%" height="100%" fill="#ffffff"/>
	<path d="M20,20h7v1h-7z M35,20h5v1h-5z M41,20h1v1h-1z M43,20h1v3h-1z M46,20h2v1h-2z M51,20h2v1h-2z M54,20h7v1h-7z M20,21h1v6h-1z M26,21h1v6h-1z M29,21h7v1h-7z M38,21h1v7h-1z M40,21h1v1h-1z M45,21h1v1h-1z M47,21h2v1h-2z M52,21h1v4h-1z M54,21h1v6h-1z M60,21h1v6h-1z M22,22h3v3h-3z M31,22h2v2h-2z M39,22h1v2h-1z M44,22h1v5h-1z M46,22h1v3h-1z M47,22h1v1h-1z M49,22h2v1h-2z M56,22h3v3h-3z M29,23h2v2h-2z M34,23h4v1h-4z M40,23h1v7h-1z M41,23h2v1h-2z M48,23h1v1h-1z M50,23h2v1h-2z M31,24h1v2h-1z M33,24h2v1h-2z M42,24h2v1h-2z M47,24h1v2h-1z M49,24h1v1h-1z M28,25h1v2h-1z M33,25h1v1h-1z M35,25h2v1h-2z M39,25h1v1h-1z M41,25h1v1h-1z M50,25h2v1h-2z M21,26h5v1h-5z M30,26h1v2h-1z M32,26h1v1h-1z M34,26h1v1h-1z M36,26h1v3h-1z M42,26h1v1h-1z M46,26h1v1h-1z M48,26h1v1h-1z M50,26h1v1h-1z M52,26h1v2h-1z M55,26h5v1h-5z M33,27h1v2h-1z M37,27h1v1h-1z M39,27h1v2h-1z M41,27h1v7h-1z M43,27h1v2h-1z M49,27h1v1h-1z M20,28h1v1h-1z M23,28h1v2h-1z M25,28h2v1h-2z M28,28h1v1h-1z M44,28h2v2h-2z M46,28h1v1h-1z M48,28h1v1h-1z M53,28h1v1h-1z M55,28h1v3h-1z M29,29h4v1h-4z M34,29h1v3h-1z M37,29h2v2h-2z M49,29h1v2h-1z M52,29h1v1h-1z M54,29h1v1h-1z M57,29h3v2h-3z M60,29h1v1h-1z M20,30h2v2h-2z M22,30h1v1h-1z M24,30h4v1h-4z M29,30h1v2h-1z M31,30h1v2h-1z M35,30h2v2h-2z M39,30h1v1h-1z M42,30h1v1h-1z M45,30h1v6h-1z M46,30h1v1h-1z M50,30h2v1h-2z M53,30h1v4h-1z M56,30h1v1h-1z M23,31h1v2h-1z M25,31h1v2h-1z M27,31h2v1h-2z M33,31h1v1h-1z M43,31h2v1h-2z M47,31h1v3h-1z M48,31h1v1h-1z M58,31h1v1h-1z M21,32h2v1h-2z M26,32h2v1h-2z M30,32h1v1h-1z M32,32h1v1h-1z M35,32h1v2h-1z M37,32h4v1h-4z M42,32h1v1h-1z M46,32h1v3h-1z M49,32h1v2h-1z M51,32h2v2h-2z M54,32h1v4h-1z M57,32h1v1h-1z M59,32h1v1h-1z M21,33h1v1h-1z M29,33h1v2h-1z M36,33h3v1h-3z M43,33h2v1h-2z M55,33h1v5h-1z M58,33h1v1h-1z M20,34h1v1h-1z M24,34h4v1h-4z M30,34h1v1h-1z M32,34h1v7h-1z M33,34h1v3h-1z M36,34h1v1h-1z M43,34h1v1h-1z M50,34h1v1h-1z M56,34h1v1h-1z M60,34h1v1h-1z M21,35h2v2h-2z M25,35h1v4h-1z M28,35h1v3h-1z M35,35h1v4h-1z M37,35h1v2h-1z M39,35h3v1h-3z M44,35h1v5h-1z M48,35h2v1h-2z M20,36h1v2h-1z M23,36h1v1h-1z M26,36h2v1h-2z M30,36h2v2h-2z M39,36h1v1h-1z M41,36h3v1h-3z M47,36h1v1h-1z M49,36h1v2h-1z M51,36h2v1h-2z M59,36h1v3h-1z M21,37h1v1h-1z M24,37h1v5h-1z M29,37h1v1h-1z M40,37h1v1h-1z M43,37h1v1h-1z M46,37h1v1h-1z M48,37h1v1h-1z M52,37h1v3h-1z M54,37h1v5h-1z M57,37h1v3h-1z M58,37h1v1h-1z M60,37h1v3h-1z M26,38h1v1h-1z M30,38h1v1h-1z M36,38h1v2h-1z M38,38h1v5h-1z M41,38h1v2h-1z M45,38h1v1h-1z M50,38h1v2h-1z M53,38h1v1h-1z M56,38h1v1h-1z M22,39h1v1h-1z M27,39h2v1h-2z M33,39h2v1h-2z M37,39h1v4h-1z M40,39h1v1h-1z M46,39h2v1h-2z M49,39h1v2h-1z M55,39h1v2h-1z M20,40h2v1h-2z M25,40h2v1h-2z M28,40h1v1h-1z M30,40h1v1h-1z M34,40h1v4h-1z M35,40h1v1h-1z M45,40h2v1h-2z M48,40h1v2h-1z M58,40h2v1h-2z M23,41h1v2h-1z M27,41h1v2h-1z M36,41h1v2h-1z M42,41h1v3h-1z M45,41h1v1h-1z M50,41h1v1h-1z M59,41h2v1h-2z M20,42h2v1h-2z M25,42h2v1h-2z M30,42h1v4h-1z M31,42h1v1h-1z M33,42h1v2h-1z M35,42h1v1h-1z M39,42h1v2h-1z M44,42h1v6h-1z M49,42h1v1h-1z M51,42h1v2h-1z M55,42h1v1h-1z M58,42h2v1h-2z M21,43h1v1h-1z M25,43h1v1h-1z M28,43h1v1h-1z M32,43h1v2h-1z M40,43h2v1h-2z M43,43h1v2h-1z M45,43h1v3h-1z M50,43h1v1h-1z M52,43h3v1h-3z M57,43h2v1h-2z M60,43h1v2h-1z M20,44h1v2h-1z M22,44h3v1h-3z M26,44h1v1h-1z M29,44h1v2h-1z M37,44h1v5h-1z M41,44h1v1h-1z M48,44h2v1h-2z M52,44h1v1h-1z M54,44h2v1h-2z M59,44h1v3h-1z M21,45h2v1h-2z M28,45h1v2h-1z M33,45h2v3h-2z M35,45h1v1h-1z M39,45h1v1h-1z M42,45h1v2h-1z M46,45h1v1h-1z M49,45h1v1h-1z M51,45h1v1h-1z M55,45h1v1h-1z M57,45h1v1h-1z M23,46h4v1h-4z M40,46h1v1h-1z M43,46h1v1h-1z M52,46h1v2h-1z M56,46h1v1h-1z M60,46h1v1h-1z M21,47h1v1h-1z M32,47h1v2h-1z M36,47h1v3h-1z M38,47h1v3h-1z M41,47h1v2h-1z M45,47h3v1h-3z M49,47h1v2h-1z M54,47h1v1h-1z M20,48h1v1h-1z M22,48h2v1h-2z M25,48h2v1h-2z M28,48h1v4h-1z M34,48h1v3h-1z M39,48h1v1h-1z M43,48h1v1h-1z M46,48h1v1h-1z M48,48h1v2h-1z M50,48h1v1h-1z M53,48h1v2h-1z M55,48h1v2h-1z M21,49h1v1h-1z M23,49h3v1h-3z M27,49h1v1h-1z M31,49h1v2h-1z M44,49h1v4h-1z M45,49h1v1h-1z M47,49h1v1h-1z M54,49h1v1h-1z M58,49h3v1h-3z M20,50h1v1h-1z M22,50h1v1h-1z M26,50h1v1h-1z M29,50h1v1h-1z M32,50h1v2h-1z M37,50h1v2h-1z M49,50h1v2h-1z M56,50h1v1h-1z M58,50h1v1h-1z M60,50h1v1h-1z M24,51h2v1h-2z M30,51h1v1h-1z M38,51h1v1h-1z M40,51h2v1h-2z M43,51h1v2h-1z M46,51h1v3h-1z M53,51h1v2h-1z M57,51h1v3h-1z M59,51h1v1h-1z M20,52h1v1h-1z M22,52h3v1h-3z M26,52h2v1h-2z M31,52h1v2h-1z M33,52h1v1h-1z M35,52h1v3h-1z M36,52h1v1h-1z M41,52h1v6h-1z M45,52h1v2h-1z M47,52h1v1h-1z M51,52h2v1h-2z M54,52h3v1h-3z M58,52h1v1h-1z M60,52h1v2h-1z M28,53h3v1h-3z M48,53h1v1h-1z M50,53h1v1h-1z M52,53h1v5h-1z M56,53h1v6h-1z M20,54h7v1h-7z M33,54h1v3h-1z M36,54h2v2h-2z M39,54h1v4h-1z M40,54h1v1h-1z M42,54h1v2h-1z M44,54h1v1h-1z M49,54h1v1h-1z M54,54h1v1h-1z M58,54h1v2h-1z M20,55h1v6h-1z M26,55h1v6h-1z M28,55h2v1h-2z M32,55h1v4h-1z M43,55h1v1h-1z M45,55h1v3h-1z M46,55h1v1h-1z M50,55h2v1h-2z M57,55h1v5h-1z M59,55h1v6h-1z M22,56h3v3h-3z M29,56h1v2h-1z M31,56h1v1h-1z M34,56h1v4h-1z M36,56h1v1h-1z M44,56h1v1h-1z M53,56h2v2h-2z M55,56h1v1h-1z M28,57h1v1h-1z M37,57h1v1h-1z M42,57h1v1h-1z M46,57h1v1h-1z M48,57h3v1h-3z M36,58h1v1h-1z M38,58h1v1h-1z M43,58h2v1h-2z M50,58h2v2h-2z M60,58h1v1h-1z M40,59h3v1h-3z M45,59h1v1h-1z M47,59h3v1h-3z M52,59h2v2h-2z M55,59h1v2h-1z M21,60h5v1h-5z M28,60h2v1h-2z M32,60h2v1h-2z M35,60h1v1h-1z M41,60h2v1h-2z M44,60h1v1h-1z M46,60h1v1h-1z M49,60h1v1h-1z M54,60h1v1h-1z M56,60h1v1h-1z" fill="#000000"/>
</svg>
